<svg width="102" height="67" viewBox="0 0 102 67" fill="none" xmlns="http://www.w3.org/2000/svg">
<path d="M1.8105 19V4.45455H3.57187V10.9318H11.3276V4.45455H13.0889V19H11.3276V12.4943H3.57187V19H1.8105ZM20.6497 19.2273C19.6649 19.2273 18.8008 18.9929 18.0574 18.5241C17.3188 18.0554 16.7411 17.3996 16.3245 16.5568C15.9125 15.714 15.7066 14.7292 15.7066 13.6023C15.7066 12.4659 15.9125 11.474 16.3245 10.6264C16.7411 9.77888 17.3188 9.12074 18.0574 8.65199C18.8008 8.18324 19.6649 7.94886 20.6497 7.94886C21.6346 7.94886 22.4963 8.18324 23.235 8.65199C23.9783 9.12074 24.556 9.77888 24.9679 10.6264C25.3846 11.474 25.5929 12.4659 25.5929 13.6023C25.5929 14.7292 25.3846 15.714 24.9679 16.5568C24.556 17.3996 23.9783 18.0554 23.235 18.5241C22.4963 18.9929 21.6346 19.2273 20.6497 19.2273ZM20.6497 17.7216C21.3978 17.7216 22.0134 17.5298 22.4963 17.1463C22.9793 16.7628 23.3368 16.2585 23.5688 15.6335C23.8008 15.0085 23.9168 14.3314 23.9168 13.6023C23.9168 12.8731 23.8008 12.1937 23.5688 11.5639C23.3368 10.9342 22.9793 10.4252 22.4963 10.0369C22.0134 9.64867 21.3978 9.45455 20.6497 9.45455C19.9016 9.45455 19.2861 9.64867 18.8031 10.0369C18.3202 10.4252 17.9627 10.9342 17.7307 11.5639C17.4987 12.1937 17.3827 12.8731 17.3827 13.6023C17.3827 14.3314 17.4987 15.0085 17.7307 15.6335C17.9627 16.2585 18.3202 16.7628 18.8031 17.1463C19.2861 17.5298 19.9016 17.7216 20.6497 17.7216ZM27.9815 19V8.09091H29.6008V9.79545H29.7429C29.9701 9.21307 30.3371 8.76089 30.8437 8.43892C31.3504 8.11222 31.9588 7.94886 32.669 7.94886C33.3887 7.94886 33.9877 8.11222 34.4659 8.43892C34.9488 8.76089 35.3253 9.21307 35.5951 9.79545H35.7088C35.9881 9.23201 36.4072 8.78456 36.9659 8.45312C37.5246 8.11695 38.1946 7.94886 38.9758 7.94886C39.9512 7.94886 40.749 8.25426 41.3693 8.86506C41.9896 9.47112 42.2997 10.4157 42.2997 11.6989V19H40.6236V11.6989C40.6236 10.8939 40.4034 10.3187 39.963 9.97301C39.5227 9.62737 39.0042 9.45455 38.4076 9.45455C37.6406 9.45455 37.0464 9.68655 36.625 10.1506C36.2036 10.6098 35.9929 11.1922 35.9929 11.8977V19H34.2883V11.5284C34.2883 10.9081 34.0871 10.4086 33.6846 10.0298C33.2822 9.64631 32.7637 9.45455 32.1292 9.45455C31.6936 9.45455 31.2864 9.57055 30.9076 9.80256C30.5336 10.0346 30.2306 10.3565 29.9986 10.7685C29.7713 11.1757 29.6576 11.6468 29.6576 12.1818V19H27.9815ZM49.7682 19.2273C48.7171 19.2273 47.8103 18.9953 47.048 18.5312C46.2904 18.0625 45.7057 17.4091 45.2938 16.571C44.8866 15.7282 44.683 14.7481 44.683 13.6307C44.683 12.5133 44.8866 11.5284 45.2938 10.6761C45.7057 9.81913 46.2786 9.15152 47.0125 8.6733C47.7511 8.19034 48.6129 7.94886 49.5977 7.94886C50.1659 7.94886 50.727 8.04356 51.281 8.23295C51.835 8.42235 52.3392 8.73011 52.7938 9.15625C53.2483 9.57765 53.6105 10.1364 53.8804 10.8324C54.1503 11.5284 54.2852 12.3854 54.2852 13.4034V14.1136H45.8761V12.6648H52.5807C52.5807 12.0492 52.4576 11.5 52.2114 11.017C51.9699 10.5341 51.6243 10.1529 51.1744 9.87358C50.7294 9.59422 50.2038 9.45455 49.5977 9.45455C48.9301 9.45455 48.3525 9.62026 47.8648 9.9517C47.3818 10.2784 47.0101 10.7045 46.7497 11.2301C46.4893 11.7557 46.3591 12.3191 46.3591 12.9205V13.8864C46.3591 14.7102 46.5011 15.4086 46.7852 15.9815C47.0741 16.5497 47.4742 16.983 47.9855 17.2812C48.4969 17.5748 49.0911 17.7216 49.7682 17.7216C50.2085 17.7216 50.6063 17.66 50.9614 17.5369C51.3212 17.4091 51.6314 17.2197 51.8918 16.9688C52.1522 16.7131 52.3534 16.3958 52.4955 16.017L54.1148 16.4716C53.9443 17.0208 53.6579 17.5038 53.2554 17.9205C52.8529 18.3324 52.3558 18.6544 51.7639 18.8864C51.1721 19.1136 50.5068 19.2273 49.7682 19.2273Z" fill="#EDB478"/>
<path d="M56.8922 19V4.45455H61.807C62.9481 4.45455 63.8809 4.66051 64.6053 5.07244C65.3345 5.47964 65.8742 6.03125 66.2246 6.72727C66.575 7.4233 66.7502 8.19981 66.7502 9.05682C66.7502 9.91383 66.575 10.6927 66.2246 11.3935C65.879 12.0942 65.3439 12.6529 64.6195 13.0696C63.8951 13.4815 62.967 13.6875 61.8354 13.6875H58.3127V12.125H61.7786C62.5598 12.125 63.1872 11.9901 63.6607 11.7202C64.1342 11.4503 64.4775 11.0857 64.6905 10.6264C64.9083 10.1624 65.0172 9.6392 65.0172 9.05682C65.0172 8.47443 64.9083 7.9536 64.6905 7.49432C64.4775 7.03504 64.1318 6.67519 63.6536 6.41477C63.1754 6.14962 62.5409 6.01705 61.7502 6.01705H58.6536V19H56.8922ZM70.8664 4.45455V19H69.1903V4.45455H70.8664ZM76.9766 19.2557C76.2853 19.2557 75.6579 19.1255 75.0945 18.8651C74.531 18.5999 74.0836 18.2188 73.7522 17.7216C73.4207 17.2197 73.255 16.6136 73.255 15.9034C73.255 15.2784 73.3781 14.7718 73.6243 14.3835C73.8705 13.9905 74.1996 13.6828 74.6115 13.4602C75.0235 13.2377 75.478 13.072 75.9752 12.9631C76.4771 12.8494 76.9813 12.7595 77.488 12.6932C78.1508 12.608 78.6882 12.544 79.1002 12.5014C79.5168 12.4541 79.8199 12.3759 80.0093 12.267C80.2034 12.1581 80.3005 11.9687 80.3005 11.6989V11.642C80.3005 10.9413 80.1087 10.3968 79.7252 10.0085C79.3464 9.62027 78.7711 9.42614 77.9993 9.42614C77.1991 9.42614 76.5718 9.60133 76.1172 9.9517C75.6627 10.3021 75.3431 10.6761 75.1584 11.0739L73.5675 10.5057C73.8516 9.8428 74.2304 9.3267 74.7039 8.95739C75.1821 8.58333 75.7029 8.32292 76.2664 8.17614C76.8345 8.02462 77.3933 7.94886 77.9425 7.94886C78.2929 7.94886 78.6953 7.99148 79.1499 8.0767C79.6092 8.1572 80.0519 8.32528 80.478 8.58097C80.9089 8.83665 81.2664 9.22254 81.5505 9.73864C81.8345 10.2547 81.9766 10.946 81.9766 11.8125V19H80.3005V17.5227H80.2152C80.1016 17.7595 79.9122 18.0128 79.647 18.2827C79.3819 18.5526 79.0291 18.7822 78.5888 18.9716C78.1485 19.161 77.6111 19.2557 76.9766 19.2557ZM77.2323 17.75C77.8951 17.75 78.4539 17.6198 78.9084 17.3594C79.3677 17.099 79.7133 16.7628 79.9453 16.3509C80.1821 15.9389 80.3005 15.5057 80.3005 15.0511V13.517C80.2294 13.6023 80.0732 13.6804 79.8317 13.7514C79.595 13.8177 79.3203 13.8769 79.0078 13.929C78.7001 13.9763 78.3994 14.0189 78.1058 14.0568C77.817 14.09 77.5826 14.1184 77.4027 14.142C76.9671 14.1989 76.5599 14.2912 76.1811 14.419C75.8071 14.5421 75.504 14.7292 75.272 14.9801C75.0448 15.2263 74.9311 15.5625 74.9311 15.9886C74.9311 16.571 75.1466 17.0114 75.5774 17.3097C76.013 17.6032 76.5647 17.75 77.2323 17.75ZM89.6102 8.09091V9.51136H83.9568V8.09091H89.6102ZM85.6045 5.47727H87.2807V15.875C87.2807 16.3485 87.3493 16.7036 87.4866 16.9403C87.6287 17.1723 87.8086 17.3286 88.0264 17.4091C88.2489 17.4848 88.4833 17.5227 88.7295 17.5227C88.9142 17.5227 89.0657 17.5133 89.1841 17.4943C89.3024 17.4706 89.3971 17.4517 89.4682 17.4375L89.8091 18.9432C89.6954 18.9858 89.5368 19.0284 89.3332 19.071C89.1296 19.1184 88.8716 19.142 88.5591 19.142C88.0856 19.142 87.6216 19.0402 87.167 18.8366C86.7172 18.633 86.3432 18.3229 86.0449 17.9062C85.7513 17.4896 85.6045 16.964 85.6045 16.3295V5.47727ZM96.4182 19.2273C95.3671 19.2273 94.4603 18.9953 93.698 18.5312C92.9404 18.0625 92.3557 17.4091 91.9438 16.571C91.5366 15.7282 91.333 14.7481 91.333 13.6307C91.333 12.5133 91.5366 11.5284 91.9438 10.6761C92.3557 9.81913 92.9286 9.15152 93.6625 8.6733C94.4011 8.19034 95.2629 7.94886 96.2477 7.94886C96.8159 7.94886 97.377 8.04356 97.931 8.23295C98.485 8.42235 98.9892 8.73011 99.4438 9.15625C99.8983 9.57765 100.261 10.1364 100.53 10.8324C100.8 11.5284 100.935 12.3854 100.935 13.4034V14.1136H92.5261V12.6648H99.2307C99.2307 12.0492 99.1076 11.5 98.8614 11.017C98.6199 10.5341 98.2742 10.1529 97.8244 9.87358C97.3794 9.59422 96.8538 9.45455 96.2477 9.45455C95.5801 9.45455 95.0025 9.62026 94.5148 9.9517C94.0318 10.2784 93.6601 10.7045 93.3997 11.2301C93.1393 11.7557 93.0091 12.3191 93.0091 12.9205V13.8864C93.0091 14.7102 93.1511 15.4086 93.4352 15.9815C93.7241 16.5497 94.1242 16.983 94.6355 17.2812C95.1469 17.5748 95.7411 17.7216 96.4182 17.7216C96.8585 17.7216 97.2563 17.66 97.6114 17.5369C97.9712 17.4091 98.2814 17.2197 98.5418 16.9688C98.8022 16.7131 99.0034 16.3958 99.1455 16.017L100.765 16.4716C100.594 17.0208 100.308 17.5038 99.9054 17.9205C99.5029 18.3324 99.0058 18.6544 98.4139 18.8864C97.8221 19.1136 97.1568 19.2273 96.4182 19.2273Z" fill="#E29A4F"/>
<path d="M51.9798 56.0581C57.5199 56.0581 62.021 51.8089 62.2125 46.5C62.021 41.1912 57.5199 36.9419 51.9798 36.9419C46.4403 36.9419 41.938 41.1912 41.749 46.5C41.9374 51.8089 46.4397 56.0581 51.9798 56.0581Z" fill="#E89135"/>
<path d="M51.9806 32.4062C44.197 32.4062 37.8862 38.7164 37.8862 46.5C37.8862 54.283 44.1977 60.5938 51.9806 60.5938C59.7636 60.5938 66.0744 54.283 66.0744 46.5C66.0744 38.7164 59.7636 32.4062 51.9806 32.4062ZM51.98 56.75C46.3188 56.75 41.7293 52.3162 41.7293 46.8453C41.7293 46.7287 41.7454 46.6153 41.7492 46.5C41.7454 46.3847 41.7293 46.2707 41.7293 46.1547C41.7293 40.6838 46.3194 36.25 51.98 36.25C57.6412 36.25 62.23 40.6838 62.23 46.1547C62.23 46.2707 62.2165 46.3847 62.2133 46.5C62.2172 46.6153 62.23 46.7287 62.23 46.8453C62.2293 52.3162 57.6412 56.75 51.98 56.75Z" fill="#E89135"/>
<path d="M33.2298 30.7541C33.3836 30.1513 33.6878 30.7471 33.6878 30.7471C33.6878 30.7471 33.7942 36.9868 34.4861 37.0547C35.1779 37.1226 34.6449 30.6343 35.4637 30.5101C36.2247 30.389 35.7904 37.1578 36.4835 37.0893C37.1741 37.0162 37.2907 30.7791 37.2907 30.7791C37.2907 30.7791 37.5982 30.184 37.7501 30.7823C39.6258 38.1559 38.1082 41.1701 38.1082 41.1701C38.1082 41.1701 37.8519 41.8036 37.2433 41.8068C37.1863 41.8036 37.2292 59.319 37.2254 61.6739C37.2267 62.8187 33.7019 62.7835 33.7039 61.6438C33.7064 59.2889 33.775 41.7755 33.7199 41.7767C33.1094 41.7767 32.8538 41.1438 32.8538 41.1438C32.8538 41.1438 31.3419 38.1316 33.2298 30.7541ZM66.6313 30.4844C67.4244 30.4825 70.7147 32.8547 70.7185 41.671C70.7224 44.4904 69.1842 44.4898 69.1868 46.2534C69.1894 48.0139 69.199 62.0166 69.199 62.0166C69.199 62.0166 67.5116 63.1742 66.2572 61.9628L66.2342 30.7349C66.2354 30.7356 66.231 30.4838 66.6313 30.4844Z" fill="#E89135"/>
</svg>
