<svg width="38" height="38" viewBox="0 0 38 38" fill="none" xmlns="http://www.w3.org/2000/svg">
<circle cx="19" cy="19" r="19" fill="#E20101" fill-opacity="0.1"/>
<path fill-rule="evenodd" clip-rule="evenodd" d="M12.0986 14.3418H18.1167C18.0212 14.6761 17.9734 15.0105 17.9734 15.3448C17.9734 15.8225 18.0689 16.2523 18.2122 16.6822H13.6747C13.4359 16.6822 13.1971 16.921 13.1971 17.1598C13.1971 17.4464 13.4359 17.6374 13.6747 17.6374H18.6899C19.4063 18.8315 20.6959 19.5957 22.1766 19.6435V26.8557C22.1766 27.4289 21.6512 27.9543 21.0302 27.9543H12.0986C11.4776 27.9543 11 27.4289 11 26.8557V15.4403C11 14.8194 11.4776 14.3418 12.0986 14.3418ZM13.6747 21.9839H18.0212C18.26 21.9839 18.4988 22.2227 18.4988 22.4615C18.4988 22.7481 18.26 22.9392 18.0212 22.9392H13.6747C13.4359 22.9392 13.1971 22.7481 13.1971 22.4615C13.1971 22.2227 13.4359 21.9839 13.6747 21.9839ZM13.6747 19.3569H19.5018C19.7884 19.3569 19.9795 19.548 19.9795 19.8346C19.9795 20.0734 19.7884 20.3122 19.5018 20.3122H13.6747C13.4359 20.3122 13.1971 20.0734 13.1971 19.8346C13.1971 19.548 13.4359 19.3569 13.6747 19.3569Z" fill="#E20101"/>
<path fill-rule="evenodd" clip-rule="evenodd" d="M19.2633 12.2645C20.952 10.5758 23.7215 10.5758 25.4101 12.2645C27.0988 13.9532 27.065 16.6888 25.3764 18.3775C23.6877 20.0662 20.952 20.1 19.2633 18.4113C17.5747 16.7226 17.5747 13.9532 19.2633 12.2645ZM23.3499 17.2292L22.3367 16.216L21.3235 17.2292C21.0871 17.4656 20.6818 17.4656 20.4454 17.2292C20.209 16.9928 20.209 16.5875 20.4454 16.3511L21.4586 15.3379L20.4116 14.2909C20.1752 14.0545 20.1752 13.6492 20.4116 13.4128C20.6481 13.1764 21.0533 13.1764 21.2898 13.4128L22.3367 14.4598L23.3499 13.4466C23.5864 13.2102 23.9916 13.2102 24.2281 13.4466C24.4645 13.683 24.4645 14.0883 24.2281 14.3247L23.2148 15.3379L24.2281 16.3511C24.4645 16.5875 24.4645 16.9928 24.2281 17.2292C23.9916 17.4656 23.5864 17.4656 23.3499 17.2292Z" fill="#E20101"/>
</svg>
