<svg width="38" height="38" viewBox="0 0 38 38" fill="none" xmlns="http://www.w3.org/2000/svg">
<circle cx="19" cy="19" r="19" fill="#007CFE" fill-opacity="0.1"/>
<g clip-path="url(#clip0_906_10643)">
<path d="M16.4808 20.1461C15.9722 20.9328 15.9062 21.7661 16.2902 22.5566C16.579 23.1491 17.122 23.7063 17.9058 24.2126C18.7773 24.7751 19.498 24.9858 20.0883 24.9858C21.1383 24.9858 21.778 24.3206 22.1207 23.7903C22.8827 22.6113 23.3065 18.7938 23.437 17.4251L27.7067 11.1731C27.9408 10.8311 27.8522 10.3646 27.5103 10.1306C27.1675 9.89655 26.7017 9.9843 26.467 10.3271L22.3458 16.3616C21.4165 16.8116 17.3193 18.8471 16.4792 20.1468L16.4808 20.1461ZM17.7408 20.9606C18.0212 20.5263 19.2175 19.7508 20.545 19.0001L18.145 22.5146C17.9125 22.3061 17.7362 22.0991 17.6395 21.9003C17.5315 21.6791 17.4602 21.3941 17.7408 20.9606ZM20.8615 22.9766C20.683 23.2526 20.3658 23.7108 19.4125 23.3178L21.577 20.1483C21.3693 21.4383 21.1165 22.5813 20.8608 22.9766H20.8615ZM11.7663 17.2053C11.6245 17.0201 11.5773 16.7786 11.6387 16.5528C11.851 15.7758 12.355 15.1083 13.0307 14.6808C13.0262 14.6201 13.024 14.5601 13.024 14.5008C13.024 12.7376 14.5637 11.3013 16.3517 11.5203C16.9082 10.5903 17.914 10.0001 19.0247 10.0001C20.1355 10.0001 21.1412 10.5903 21.6978 11.5203C22.3758 11.4378 23.0177 11.6028 23.557 11.9283L21.331 15.1871C19.9705 15.8568 18.4563 16.6713 17.2435 17.5001H12.3625C12.1285 17.5001 11.9088 17.3906 11.7663 17.2046V17.2053ZM25.2017 17.5008L26.287 15.9108C26.3822 16.1448 26.455 16.3893 26.4918 16.6436C26.5225 16.8588 26.458 17.0771 26.3162 17.2421C26.1737 17.4063 25.9668 17.5008 25.7493 17.5008H25.2017ZM28 21.2456C28 25.0533 22.75 27.9956 21.25 27.9956H16.75C15.25 27.9956 10 25.0533 10 21.2456C10 20.7648 10.1672 20.2758 10.477 19.8761C10.9105 19.3166 11.5645 18.9956 12.271 18.9956H15.4765C15.3805 19.1088 15.292 19.2213 15.22 19.3323C14.4235 20.5653 14.3238 21.9431 14.941 23.2143C15.3512 24.0566 16.0743 24.8163 17.0912 25.4741C18.1322 26.1461 19.1395 26.4873 20.0875 26.4873C21.427 26.4873 22.5963 25.8191 23.38 24.6056C23.9695 23.6943 24.4368 21.8058 24.775 18.9963H25.7283C26.434 18.9963 27.088 19.3173 27.5223 19.8768C27.832 20.2766 27.9993 20.7656 27.9993 21.2463L28 21.2456Z" fill="#007CFE"/>
</g>
<defs>
<clipPath id="clip0_906_10643">
<rect width="18" height="18" fill="white" transform="translate(10 10)"/>
</clipPath>
</defs>
</svg>
