<svg width="20" height="20" viewBox="0 0 20 20" fill="none" xmlns="http://www.w3.org/2000/svg">
<path d="M18.3333 4.77375V1.67042C18.3333 1.21042 17.9608 0.837083 17.5 0.837083C17.0392 0.837083 16.6667 1.21042 16.6667 1.67042V3.64208L12.3308 0.71625C10.915 -0.23875 9.085 -0.23875 7.66917 0.71625L1.83583 4.65292C0.686667 5.42875 0 6.71958 0 8.10708V15.8371C0 18.1346 1.86917 20.0037 4.16667 20.0037H5.83333C6.29417 20.0037 6.66667 19.6304 6.66667 19.1704V11.6704C6.66667 11.2113 7.04 10.8371 7.5 10.8371H12.5C12.96 10.8371 13.3333 11.2113 13.3333 11.6704V19.1704C13.3333 19.6304 13.7058 20.0037 14.1667 20.0037H15.8333C18.1308 20.0037 20 18.1346 20 15.8371V8.10708C20 6.78958 19.38 5.55875 18.3333 4.77375Z" fill="#E29A4F"/>
</svg>
