<svg width="22" height="20" viewBox="0 0 22 20" fill="none" xmlns="http://www.w3.org/2000/svg">
<path d="M22 19.0913C22 19.3323 21.9034 19.5634 21.7315 19.7338C21.5596 19.9043 21.3264 20 21.0833 20H0.916667C0.673552 20 0.440394 19.9043 0.268485 19.7338C0.0965771 19.5634 0 19.3323 0 19.0913C0 18.8503 0.0965771 18.6191 0.268485 18.4487C0.440394 18.2783 0.673552 18.1826 0.916667 18.1826H21.0833C21.3264 18.1826 21.5596 18.2783 21.7315 18.4487C21.9034 18.6191 22 18.8503 22 19.0913ZM1.83333 16.3651H20.1667C20.4098 16.3651 20.6429 16.2694 20.8148 16.099C20.9868 15.9286 21.0833 15.6974 21.0833 15.4564V14.5477C21.08 12.0554 20.1384 9.65404 18.443 7.81376C16.7475 5.97348 14.4202 4.82678 11.9167 4.59816V3.39138C12.2662 3.19134 12.5393 2.88256 12.6938 2.51294C12.8482 2.14331 12.8753 1.73349 12.7709 1.34705C12.6664 0.960601 12.4362 0.61912 12.1161 0.375567C11.7959 0.132014 11.4036 0 11 0C10.5964 0 10.2041 0.132014 9.88394 0.375567C9.56376 0.61912 9.33359 0.960601 9.22914 1.34705C9.12468 1.73349 9.15178 2.14331 9.30622 2.51294C9.46066 2.88256 9.73382 3.19134 10.0833 3.39138V4.59816C7.57982 4.82678 5.25252 5.97348 3.55704 7.81376C1.86156 9.65404 0.919995 12.0554 0.916667 14.5477V15.4564C0.916667 15.6974 1.01324 15.9286 1.18515 16.099C1.35706 16.2694 1.59022 16.3651 1.83333 16.3651Z" fill="#E29A4F"/>
</svg>
