<svg width="22" height="22" viewBox="0 0 22 22" fill="none" xmlns="http://www.w3.org/2000/svg">
<path d="M21.0833 17.4165V15.5832C21.08 13.0691 20.1384 10.6467 18.443 8.79032C16.7475 6.93394 14.4202 5.77721 11.9167 5.54658V4.32925C12.2662 4.12746 12.5393 3.81598 12.6938 3.44312C12.8482 3.07026 12.8753 2.65686 12.7709 2.26703C12.6664 1.87721 12.4362 1.53274 12.1161 1.28706C11.7959 1.04137 11.4036 0.908203 11 0.908203C10.5964 0.908203 10.2041 1.04137 9.88394 1.28706C9.56376 1.53274 9.33359 1.87721 9.22914 2.26703C9.12468 2.65686 9.15178 3.07026 9.30622 3.44312C9.46066 3.81598 9.73382 4.12746 10.0833 4.32925V5.54658C7.57982 5.77721 5.25252 6.93394 3.55704 8.79032C1.86156 10.6467 0.919995 13.0691 0.916667 15.5832V17.4165C0.673552 17.4165 0.440394 17.5131 0.268485 17.685C0.0965771 17.8569 0 18.09 0 18.3332C0 18.5763 0.0965771 18.8094 0.268485 18.9813C0.440394 19.1533 0.673552 19.2498 0.916667 19.2498H21.0833C21.3264 19.2498 21.5596 19.1533 21.7315 18.9813C21.9034 18.8094 22 18.5763 22 18.3332C22 18.09 21.9034 17.8569 21.7315 17.685C21.5596 17.5131 21.3264 17.4165 21.0833 17.4165ZM2.75 15.5832C3.18358 4.64367 18.8201 4.65192 19.25 15.5832V17.4165H2.75V15.5832Z" fill="#7C7C7C"/>
</svg>
