<svg width="38" height="38" viewBox="0 0 38 38" fill="none" xmlns="http://www.w3.org/2000/svg">
<circle cx="19" cy="19" r="19" fill="#2B8800" fill-opacity="0.1"/>
<path fill-rule="evenodd" clip-rule="evenodd" d="M12.0986 14.3438H18.1167C18.0212 14.6781 17.9734 15.0124 17.9734 15.3468C17.9734 15.8244 18.0689 16.2543 18.2122 16.6841H13.6747C13.4359 16.6841 13.1971 16.923 13.1971 17.1618C13.1971 17.4483 13.4359 17.6394 13.6747 17.6394H18.6899C19.4063 18.8335 20.6959 19.5977 22.1766 19.6455V26.8577C22.1766 27.4308 21.6512 27.9562 21.0302 27.9562H12.0986C11.4776 27.9562 11 27.4308 11 26.8577V15.4423C11 14.8214 11.4776 14.3438 12.0986 14.3438ZM13.6747 21.9858H18.0212C18.26 21.9858 18.4988 22.2247 18.4988 22.4635C18.4988 22.7501 18.26 22.9411 18.0212 22.9411H13.6747C13.4359 22.9411 13.1971 22.7501 13.1971 22.4635C13.1971 22.2247 13.4359 21.9858 13.6747 21.9858ZM13.6747 19.3589H19.5018C19.7884 19.3589 19.9795 19.5499 19.9795 19.8365C19.9795 20.0753 19.7884 20.3141 19.5018 20.3141H13.6747C13.4359 20.3141 13.1971 20.0753 13.1971 19.8365C13.1971 19.5499 13.4359 19.3589 13.6747 19.3589Z" fill="#2B8800"/>
<path fill-rule="evenodd" clip-rule="evenodd" d="M20.1585 11.5792C22.2267 10.3851 24.9018 11.1019 26.0959 13.1701C27.29 15.2383 26.5493 17.872 24.4811 19.0661C22.4129 20.2602 19.7617 19.5848 18.5676 17.5166C17.3736 15.4484 18.0903 12.7733 20.1585 11.5792Z" fill="#2B8800"/>
<path d="M21.633 16.8047L20.1433 15.1216C20.0457 14.9928 19.9947 14.8271 20.0004 14.6577C20.0062 14.4882 20.0684 14.3275 20.1745 14.2076C20.2807 14.0877 20.4229 14.0174 20.5729 14.0109C20.7229 14.0043 20.8695 14.062 20.9835 14.1723L22.0531 15.3774L24.0165 13.1624C24.1305 13.0521 24.2771 12.9944 24.4271 13.001C24.5771 13.0075 24.7193 13.0778 24.8255 13.1977C24.9316 13.3176 24.9938 13.4783 24.9996 13.6478C25.0053 13.8172 24.9543 13.9829 24.8567 14.1117L22.4732 16.8047C22.3615 16.9301 22.2105 17.0005 22.0531 17.0005C21.8957 17.0005 21.7446 16.9301 21.633 16.8047Z" fill="#EDF3EB"/>
</svg>
