<svg width="20" height="20" viewBox="0 0 20 20" fill="none" xmlns="http://www.w3.org/2000/svg">
<path d="M12.75 13.3335H8.58333C8.12333 13.3335 7.75 13.7068 7.75 14.1668C7.75 14.6268 8.12333 15.0002 8.58333 15.0002H12.75C13.2108 15.0002 13.5833 14.6268 13.5833 14.1668C13.5833 13.7068 13.2108 13.3335 12.75 13.3335Z" fill="#7C7C7C"/>
<path d="M12.75 10H8.58333C8.12333 10 7.75 10.3733 7.75 10.8333C7.75 11.2933 8.12333 11.6667 8.58333 11.6667H12.75C13.2108 11.6667 13.5833 11.2933 13.5833 10.8333C13.5833 10.3733 13.2108 10 12.75 10Z" fill="#7C7C7C"/>
<path d="M12.75 6.6665H8.58333C8.12333 6.6665 7.75 7.03984 7.75 7.49984C7.75 7.95984 8.12333 8.33317 8.58333 8.33317H12.75C13.2108 8.33317 13.5833 7.95984 13.5833 7.49984C13.5833 7.03984 13.2108 6.6665 12.75 6.6665Z" fill="#7C7C7C"/>
<path d="M6.08334 8.33598C6.54219 8.33598 6.91417 7.96401 6.91417 7.50515C6.91417 7.04629 6.54219 6.67432 6.08334 6.67432C5.62448 6.67432 5.2525 7.04629 5.2525 7.50515C5.2525 7.96401 5.62448 8.33598 6.08334 8.33598Z" fill="#7C7C7C"/>
<path d="M6.08334 11.6641C6.54219 11.6641 6.91417 11.2921 6.91417 10.8333C6.91417 10.3744 6.54219 10.0024 6.08334 10.0024C5.62448 10.0024 5.2525 10.3744 5.2525 10.8333C5.2525 11.2921 5.62448 11.6641 6.08334 11.6641Z" fill="#7C7C7C"/>
<path d="M6.08334 14.9927C6.54219 14.9927 6.91417 14.6207 6.91417 14.1619C6.91417 13.703 6.54219 13.3311 6.08334 13.3311C5.62448 13.3311 5.2525 13.703 5.2525 14.1619C5.2525 14.6207 5.62448 14.9927 6.08334 14.9927Z" fill="#7C7C7C"/>
<path d="M16.8375 5.27919C16.5675 3.66836 15.185 2.50003 13.55 2.50003H13.5417C13.5417 2.50003 13.4642 2.50003 13.3592 2.50169C12.9958 1.72753 12.2608 1.14753 11.3917 1.00336C10.0267 0.777526 8.80167 0.777526 7.44167 1.00336C6.57417 1.14669 5.83917 1.72669 5.475 2.49919H5.285C3.65 2.49919 2.26667 3.66836 1.9975 5.27919C1.77083 6.63419 1.5 8.69753 1.5 10.8325C1.5 14.8584 2.77167 17.6809 2.82583 17.7992C2.9225 18.0092 3.10167 18.17 3.32167 18.2434C3.435 18.2809 6.14333 19.1659 9.41667 19.1659C12.69 19.1659 15.3975 18.2809 15.5108 18.2442C15.7325 18.1709 15.9125 18.0084 16.0092 17.7959C16.0625 17.6767 17.3333 14.8242 17.3333 10.8325C17.3333 8.68253 17.0642 6.62669 16.8375 5.27919ZM14.6267 16.77C13.8192 16.9959 11.7575 17.5 9.41667 17.5C7.07583 17.5 5.01 16.9942 4.20417 16.7684C3.89417 15.9534 3.16667 13.7325 3.16667 10.8334C3.16667 8.81336 3.425 6.84836 3.64083 5.55586C3.77583 4.75169 4.46667 4.16669 5.285 4.16669H6.08333C6.49583 4.16669 6.84583 3.86503 6.9075 3.45753C6.96833 3.05586 7.3075 2.71503 7.71417 2.64753C8.895 2.45169 9.93417 2.45086 11.1192 2.64753C11.5267 2.71503 11.8658 3.05586 11.9217 3.42086C12.0025 4.18086 12.5592 4.18253 13.5533 4.16753C14.3692 4.16919 15.06 4.75253 15.1942 5.55586C15.41 6.84086 15.6667 8.80003 15.6667 10.8342C15.6667 13.695 14.9367 15.9434 14.6267 16.77Z" fill="#7C7C7C"/>
</svg>
