<svg width="17" height="19" viewBox="0 0 17 19" fill="none" xmlns="http://www.w3.org/2000/svg">
<path d="M16.4676 4.60722C16.1777 2.93768 14.6934 1.72676 12.9379 1.72676H12.9289C12.9289 1.72676 12.8457 1.72676 12.733 1.72849C12.3429 0.926108 11.5537 0.324969 10.6205 0.175548C9.15495 -0.058516 7.83968 -0.058516 6.37947 0.175548C5.44805 0.324105 4.65889 0.925244 4.26789 1.7259H4.06389C2.30842 1.7259 0.823158 2.93768 0.534158 4.60722C0.290789 6.0116 0 8.15014 0 10.3629C0 14.5355 1.36537 17.4609 1.42353 17.5835C1.52732 17.8012 1.71968 17.9679 1.95589 18.0439C2.07758 18.0827 4.98547 19 8.5 19C12.0145 19 14.9215 18.0827 15.0432 18.0447C15.2812 17.9687 15.4745 17.8003 15.5783 17.5801C15.6355 17.4566 17 14.5001 17 10.3629C17 8.13459 16.711 6.00383 16.4676 4.60722ZM4.02632 15.1125C3.28637 15.1125 2.686 14.5329 2.686 13.8186C2.686 13.1043 3.28637 12.5248 4.02632 12.5248C4.76626 12.5248 5.36663 13.1043 5.36663 13.8186C5.36663 14.5329 4.76626 15.1125 4.02632 15.1125ZM4.02632 11.6576C3.28637 11.6576 2.686 11.0781 2.686 10.3638C2.686 9.64953 3.28637 9.06998 4.02632 9.06998C4.76626 9.06998 5.36663 9.64953 5.36663 10.3638C5.36663 11.0781 4.76626 11.6576 4.02632 11.6576ZM4.02632 8.20282C3.28637 8.20282 2.686 7.62328 2.686 6.90899C2.686 6.19471 3.28637 5.61516 4.02632 5.61516C4.76626 5.61516 5.36663 6.19471 5.36663 6.90899C5.36663 7.62328 4.76626 8.20282 4.02632 8.20282ZM12.9737 14.6823H8.5C8.00611 14.6823 7.60526 14.2954 7.60526 13.8186C7.60526 13.3419 8.00611 12.9549 8.5 12.9549H12.9737C13.4685 12.9549 13.8684 13.3419 13.8684 13.8186C13.8684 14.2954 13.4685 14.6823 12.9737 14.6823ZM12.9737 11.2275H8.5C8.00611 11.2275 7.60526 10.8406 7.60526 10.3638C7.60526 9.88705 8.00611 9.50011 8.5 9.50011H12.9737C13.4685 9.50011 13.8684 9.88705 13.8684 10.3638C13.8684 10.8406 13.4685 11.2275 12.9737 11.2275ZM12.9737 7.7727H8.5C8.00611 7.7727 7.60526 7.38576 7.60526 6.90899C7.60526 6.43223 8.00611 6.04529 8.5 6.04529H12.9737C13.4685 6.04529 13.8684 6.43223 13.8684 6.90899C13.8684 7.38576 13.4685 7.7727 12.9737 7.7727Z" fill="#E29A4F"/>
</svg>
