<svg width="18" height="18" viewBox="0 0 18 18" fill="none" xmlns="http://www.w3.org/2000/svg">
<path d="M8.25 9C9.14002 9 10.01 8.73608 10.7501 8.24162C11.4901 7.74715 12.0669 7.04434 12.4075 6.22208C12.7481 5.39981 12.8372 4.49501 12.6635 3.6221C12.4899 2.74918 12.0613 1.94736 11.432 1.31802C10.8026 0.688685 10.0008 0.260102 9.12791 0.0864683C8.25499 -0.0871652 7.35019 0.00194979 6.52792 0.342544C5.70566 0.683138 5.00285 1.25991 4.50839 1.99994C4.01392 2.73996 3.75 3.60999 3.75 4.5C3.75119 5.69311 4.22568 6.83701 5.06934 7.68067C5.91299 8.52432 7.05689 8.99881 8.25 9ZM8.25 1.5C8.84334 1.5 9.42336 1.67595 9.91671 2.00559C10.4101 2.33524 10.7946 2.80377 11.0216 3.35195C11.2487 3.90013 11.3081 4.50333 11.1924 5.08527C11.0766 5.66722 10.7909 6.20177 10.3713 6.62132C9.95176 7.04088 9.41721 7.3266 8.83527 7.44236C8.25333 7.55811 7.65013 7.4987 7.10195 7.27164C6.55377 7.04458 6.08524 6.66006 5.75559 6.16671C5.42595 5.67337 5.25 5.09335 5.25 4.5C5.25 3.70435 5.56607 2.94129 6.12868 2.37868C6.69129 1.81607 7.45435 1.5 8.25 1.5Z" fill="#7C7C7C"/>
<path d="M8.25 10.5C6.4604 10.502 4.74466 11.2138 3.47922 12.4792C2.21378 13.7447 1.50199 15.4604 1.5 17.25C1.5 17.4489 1.57902 17.6397 1.71967 17.7803C1.86032 17.921 2.05109 18 2.25 18C2.44891 18 2.63968 17.921 2.78033 17.7803C2.92098 17.6397 3 17.4489 3 17.25C3 15.8576 3.55312 14.5223 4.53769 13.5377C5.52226 12.5531 6.85761 12 8.25 12C9.64239 12 10.9777 12.5531 11.9623 13.5377C12.9469 14.5223 13.5 15.8576 13.5 17.25C13.5 17.4489 13.579 17.6397 13.7197 17.7803C13.8603 17.921 14.0511 18 14.25 18C14.4489 18 14.6397 17.921 14.7803 17.7803C14.921 17.6397 15 17.4489 15 17.25C14.998 15.4604 14.2862 13.7447 13.0208 12.4792C11.7553 11.2138 10.0396 10.502 8.25 10.5Z" fill="#7C7C7C"/>
</svg>
